<svg xmlns="http://www.w3.org/2000/svg" xmlns:xlink="http://www.w3.org/1999/xlink" preserveAspectRatio="xMidYMid meet" version="1.0" viewBox="0.0 0.0 500.0 442.9" zoomAndPan="magnify" style="fill: rgb(0, 0, 0);" role="img" aria-label="White Heart Vector">
  <g>
    <g id="__id233_s4neovb3pm">
      <path d="M250,442.9l-5.3-3.6c-0.6-0.4-61.5-42-121.5-99.5c-35.4-34-63.7-66.8-84.1-97.6 C13.2,202.8,0,166.3,0,133.9C0,60.1,60.1,0,133.9,0c27.4,0,53.9,8.4,76.5,24.4C226.8,36,240.2,50.8,250,67.8 c9.8-17.1,23.2-31.9,39.6-43.4C312.2,8.4,338.7,0,366.1,0C439.9,0,500,60.1,500,133.9v0.1c-0.3,32.2-13.6,68.4-39.6,107.7 c-20.4,30.8-48.6,63.6-84,97.7c-59.9,57.7-120.5,99.5-121.1,99.9L250,442.9z M133.9,18.7c-63.5,0-115.2,51.7-115.2,115.2 c0,28.7,12.1,61.6,36,97.8c19.5,29.6,46.9,61.4,81.3,94.4c48.7,46.7,98.1,82.8,114,94c15.9-11.3,65-47.6,113.6-94.4 c34.3-33.1,61.6-64.8,81.2-94.4c23.9-36.2,36.2-68.9,36.4-97.4c0-63.5-51.7-115.1-115.2-115.1c-47.1,0-90.2,29.8-107.4,74.2 l-8.7,22.6L241.3,93C224.1,48.6,181,18.7,133.9,18.7z" style="fill: rgb(219, 161, 145);"></path>
    </g>
  </g>
</svg>
