<?xml version="1.0" encoding="UTF-8"?><svg xmlns="http://www.w3.org/2000/svg" xmlns:xlink="http://www.w3.org/1999/xlink" height="35.0" preserveAspectRatio="none" version="1.0" viewBox="69.2 126.5 149.7 35.0" width="149.7" zoomAndPan="magnify"><g id="change1_1"><path d="M69.174,131.383c.226-.128.232-.367.3-.579a2.729,2.729,0,0,1,2.081-2.012,18.677,18.677,0,0,1,5.857-.624c1.656.107,3.311-.038,4.967-.079a38.11,38.11,0,0,1,4.755.208c.77.077,1.54.074,2.311.089,3.4.067,6.8,0,10.2-.13,2.721-.1,5.445-.081,8.169-.053,2.587.025,5.171-.068,7.756-.176,2.357-.1,4.717-.119,7.074-.207,1.7-.065,3.4-.173,5.095-.287,2.015-.137,4.032-.2,6.05-.26,2.245-.068,4.487-.182,6.73-.292,3.195-.157,6.389-.254,9.591-.132,3.332.126,6.668.18,10,.033,4.309-.191,8.622-.106,12.932-.2q5.207-.112,10.415-.085c2.406.009,4.812.016,7.216,0,1.565-.012,3.13-.108,4.694-.106,5.084.009,10.163.145,15.237.437a34.177,34.177,0,0,1,5.331.638c1.41.307,1.725.69,1.75,2.126a19.458,19.458,0,0,1-.12,2.377,33.154,33.154,0,0,0-.071,4.217c.025,1.066.077,2.13.028,3.2a19.157,19.157,0,0,0,.679,5.854,19.545,19.545,0,0,1,.487,5.06c0,2.744.064,5.488.133,8.231.026,1.04-.182,1.371-1.205,1.634a7.415,7.415,0,0,1-1.754.2c-5.763.077-11.525.206-17.289.183-4.379-.018-8.757.191-13.137.162-5.22-.035-10.44,0-15.66-.045-4.039-.034-8.076-.179-12.115-.208-5.332-.038-10.663.064-15.989.351-5.233.282-10.467.532-15.708.574a4.636,4.636,0,0,0-.469-.04c-2.782.024-5.564.064-8.347.074-2.556.01-5.111-.013-7.667-.021-.746-.049-1.492-.1-2.239-.145-1.992-.119-3.985-.232-5.978-.353-2.4-.146-4.8-.367-7.2-.434-4.378-.124-8.757-.175-13.137-.221-2.019-.021-4.039.045-6.058.069-1.343.016-1.407-.031-1.758-1.343a48.251,48.251,0,0,1-1.214-7.232c-.226-2.051-.438-4.1-.782-6.136-.268-1.586-.588-3.163-.859-4.749-.425-2.5-.629-5.025-1.086-7.518ZM99.9,128.572a3.267,3.267,0,0,0,1.766-.049A10.31,10.31,0,0,0,99.9,128.572Z" fill="#bc4327"/></g></svg>
