<svg xmlns="http://www.w3.org/2000/svg" xmlns:xlink="http://www.w3.org/1999/xlink" preserveAspectRatio="xMidYMid meet" version="1.0" viewBox="-0.3 -2.5 294.8 234.1" zoomAndPan="magnify" style="fill: rgb(188, 67, 39);" role="img" aria-label="happy hand drawing face"><g><g><g id="__id275_swu9l8thzm"><path d="M75.4,8.1C74,15.6,74.9,24,75,31.7c0.1,8.1,0.4,16,1.1,24c0.7,7.7,13.8,8.8,15.4,1.1c1.9-8.7,2.8-16.8,2.6-25.6 c-0.3-8.6-0.6-17.9-3.9-25.9c-1.3-3.1-5.3-4.8-8.4-4.2C78.1,1.8,76.1,4.7,75.4,8.1L75.4,8.1z" style="fill: inherit;"></path></g><g id="__id276_swu9l8thzm"><path d="M184.1,5.5c-3,6-1.8,14.9-1.5,21.5c0.3,7.7,1.2,14.8,3.2,22.2c2.7,10.1,15.5,8.6,17.5-1c1.7-8,1.8-15.3,0.9-23.4 c-0.8-7.3-1.5-16-6.2-22C193.8-2.5,186.6,0.4,184.1,5.5L184.1,5.5z" style="fill: inherit;"></path></g></g><g id="__id277_swu9l8thzm"><path d="M0,132.4c-0.3,15.1,7.3,29.3,15.7,41.4c8.3,11.9,18.9,22.3,30.8,30.6c22.7,15.8,50.5,24.8,78.1,26 c28,1.2,56.7-4.6,81.3-18.2c24.5-13.5,45.2-33.4,60.3-57c8.3-13,15-27.2,19.7-41.9c2.5-7.6,4.5-15.5,5.8-23.4 c1.2-7.8,2.8-16.7,0.3-24.3c-2.4-7.2-11.2-8.2-14.6-1.1c-2.7,5.7-3,12-4.3,18.2c-1.3,6.1-2.7,12.2-4.5,18.2 c-3.4,11.5-8,22.7-13.9,33.1c-11.9,21.1-28.3,40-48.7,53.4c-40.4,26.4-95,30-138.2,7.8c-12.6-6.5-24.3-15.2-33.9-25.5 c-10.9-11.7-17.1-25.3-24.6-39.2C7.1,126.6,0.1,127.3,0,132.4L0,132.4z" style="fill: inherit;"></path></g></g></svg>
